<?xml version="1.0" encoding="UTF-8"?>
<!-- Generator: Adobe Illustrator 24.3.0, SVG Export Plug-In . SVG Version: 6.00 Build 0)  -->
<svg version="1.1" id="Camada_1" xmlns="http://www.w3.org/2000/svg" xmlns:xlink="http://www.w3.org/1999/xlink" x="0px" y="0px" viewBox="0 0 262.2 299" style="enable-background:new 0 0 262.2 299;" xml:space="preserve">
<style type="text/css">
	.st0{fill:#E02D5C;}
	.st1{clip-path:url(#SVGID_2_);}
	.st2{fill:#012442;}
	.st3{fill:#FFBB71;}
	.st4{fill:#1A5FAA;}
	.st5{fill:#FFFFFF;}
	.st6{fill:#F9B800;}
	.st7{clip-path:url(#SVGID_4_);}
	.st8{clip-path:url(#SVGID_6_);}
	.st9{clip-path:url(#SVGID_8_);}
	.st10{clip-path:url(#SVGID_10_);}
	.st11{clip-path:url(#SVGID_12_);}
	.st12{clip-path:url(#SVGID_14_);}
	.st13{fill:#EF5B70;}
	.st14{clip-path:url(#SVGID_16_);}
	.st15{clip-path:url(#SVGID_18_);}
</style>
<g>
	<circle class="st0" cx="131.2" cy="174.6" r="123.3"/>
</g>
<g>
	<defs>
		<circle id="SVGID_1_" cx="130.9" cy="174.6" r="123.3"/>
	</defs>
	<clipPath id="SVGID_2_">
		<use xlink:href="#SVGID_1_" style="overflow:visible;"/>
	</clipPath>
	<g class="st1">
		<g>
			<path class="st2" d="M223.2,300.2c-12.5,0-23.7-7.9-26.6-19.4c-9.3-37.2-33-47.3-34-47.7c0.4,0.2,0.6,0.2,0.6,0.2l19.8-46.6     c5.2,1.9,51.2,19.9,66.9,83c3.4,13.5-5.9,26.8-20.6,29.9C227.3,300,225.3,300.2,223.2,300.2z"/>
		</g>
		<g>
			<path class="st3" d="M224.4,292.1c-8.3,0-15.8-5.2-17.7-13c-10.6-42.7-44.2-57.5-44.5-57.7c-9.2-3.8-13.3-13.6-9.2-22     s14.9-12.1,24.1-8.4c2,0.8,50.3,21.2,65.1,80.7c2.2,9-3.9,17.9-13.7,19.9C227.2,291.9,225.8,292.1,224.4,292.1z"/>
		</g>
		<g>
			<path class="st2" d="M40.7,301c-2,0-4.1-0.2-6.1-0.6c-14.7-3.1-23.9-16.5-20.6-29.9c15.7-63.1,65.7-84.7,70.8-86.6l19.8,46.6     c-1.2,1.1-2.3,2.2-3.3,3.4c-1,0.4-24.8,10.5-34,47.7C64.4,293.1,53.1,301,40.7,301z"/>
		</g>
		<g>
			<path class="st3" d="M39.4,292.9c-1.4,0-2.7-0.1-4.1-0.4c-9.8-2-16-11-13.7-19.9c14.8-59.4,64.9-80.7,66.9-81.5l20.3,26.9     l0.3,0.3c-1.4,0.6-41.4,19.1-52,61.7C55.3,287.7,47.8,292.9,39.4,292.9z"/>
		</g>
		<g id="peito">
			<g>
				<path class="st3" d="M203.9,297.8c0,0,7.6-85.6-43.8-112.2l-56.4,2.2c-45.1,15.9-42.6,110-42.6,110L203.9,297.8z"/>
			</g>
		</g>
		<g>
			<path class="st2" d="M69.4,248.9c-1.7-1-3.9-0.5-4.9,1.2c-0.2,0.3-0.3,0.6-0.4,0.9c-2.8,10.7-5.1,25.2-5.1,44     c0.1,1.9,1.7,3.4,3.6,3.3c0,0,0,0,0,0l0,0c1.9,0.1,3.6-1.4,3.6-3.3c0-18,2.2-32,4.9-42.2C71.5,251.3,70.8,249.6,69.4,248.9     L69.4,248.9z"/>
		</g>
		<g>
			<path class="st2" d="M197.6,248.9c-1.5,0.8-2.2,2.5-1.8,4.1c2.6,10.2,4.8,24.1,4.9,42.2c0.1,1.9,1.7,3.4,3.6,3.3l0,0     c1.9,0.1,3.6-1.4,3.6-3.3c0-18.8-2.3-33.3-5.1-44c-0.5-1.9-2.5-3.1-4.4-2.6C198.2,248.6,197.9,248.7,197.6,248.9L197.6,248.9z"/>
		</g>
	</g>
</g>
<g>
	<path class="st4" d="M118.6,13.2h30.1c53.1,0,96.1,43,96.1,96.1v23.9c0,61.4-49.8,111.1-111.1,111.1l0,0l0,0   c-61.4,0-111.1-49.8-111.1-111.1c0,0,0,0,0,0v-23.9C22.5,56.2,65.5,13.2,118.6,13.2C118.6,13.2,118.6,13.2,118.6,13.2z"/>
</g>
<g>
	
		<ellipse transform="matrix(0.6029 -0.7978 0.7978 0.6029 -63.8933 106.3958)" class="st5" cx="74.9" cy="117.4" rx="24.4" ry="41.8"/>
</g>
<g>
	<path class="st5" d="M164.8,31.9c0,0-3.7,17.7-0.4,28.5c0,0,8.2-3.6,21.4-4.7c-0.7-5-1.7-14.9,0.1-20.8c6.8,7.6,14,14.8,21.8,21.5   c8.1,1.2,16.1,3.4,23.7,6.6c0,0,13.5,19.3,11,39.5s-81.2,5-81.2,5c-1.6-1.2-12-16.1-21-22.3C140.1,85.1,135.6,51.3,164.8,31.9z"/>
</g>
<g>
	<path class="st5" d="M102.7,29.9c0,0,3.7,17.7,0.4,28.5c0,0-8.2-3.6-21.4-4.7c0.7-5,1.7-14.9-0.1-20.8c-6.8,7.6-14,14.8-21.8,21.5   c-8.1,1.2-16.1,3.4-23.7,6.6c0,0-13.5,19.3-11,39.5s81.2,5,81.2,5c1.7-1.2,12-16.1,21-22.3C127.4,83.1,131.9,49.3,102.7,29.9z"/>
</g>
<g>
	<path class="st5" d="M162.6,140.3c8.1,10.8,29.2,8.5,47.2-5.1s25.9-33.3,17.8-44s-29.2-11.5-47.2,2.1S154.5,129.6,162.6,140.3z"/>
</g>
<g>
	<path class="st5" d="M190.5,160.4c0,0,15.3,14.1,10.6,38.7c0,0,17.6-15.3,15.3-32.9l18.8-43.4L190.5,160.4z"/>
</g>
<g>
	<path class="st5" d="M73.1,160.4c0,0-15.3,14.1-10.6,38.7c0,0-17.6-15.3-15.3-32.9l-18.8-43.4L73.1,160.4z"/>
</g>
<g>
	<path class="st6" d="M245.5,102.7v-0.2c-0.9-3.9-2.4-7.7-4.3-11.3c-1.5-2.9-2.8-5.8-3.9-8.9l-0.1-0.3l-0.2-0.2   c-1-0.8-25.1-20.3-41.6-17.2c-1.8,0.3-3.7,0.6-5.7,0.9c-15.6,2.1-33.2,4.4-44.7,55.7v0.1l0.1,3.3c-3.1-2.9-7.1-4.4-11.3-4.4h-0.1   c-5.3,0-10.2,2.6-13.3,6.9l-1.4,2c-4.5-42-20.3-63.3-45.8-61.5l-12.8,2c-17.6,1.3-32.4,13.7-36.8,30.7c-0.2,0.7-0.4,1.5-0.6,2.2   l-0.1,0.2l5,19.1l0,0.1c9.8,23.4,29.4,39.2,48.8,39.2H97l-6.8,9.9c-3.1,3.4-4.9,7.8-4.9,12.5c0.1,3.9,0.9,7.7,2.1,11.3   c3.6,11.2,11.5,20.7,23.5,28.3c9.8,6.2,24.8,6.2,25.4,6.2c19-0.1,28.9-9.6,32.3-13.7c11.5-13.5,15-27,15.4-31   c0.1-0.7,0.1-1.4,0-2.1c-0.3-4.6-2-8.9-4.7-12.6l-6.6-8.9h18.9c9.1,0,20-4.3,30-11.9c10.4-7.8,18.6-18.3,23.8-30.2l0.1-0.2   L245.5,102.7z M134,136c1.2,0,2.4,0.6,3.1,1.6l11.1,15.4c1.3,1.7,0.9,4.2-0.9,5.4c-0.7,0.5-1.4,0.7-2.3,0.7l-21.7,0.1l0,0   c-2.1,0-3.9-1.7-3.9-3.9c0-0.8,0.2-1.6,0.7-2.2l10.6-15.4C131.5,136.7,132.7,136,134,136z M223.5,103.1c0.8,4.3,0.4,8.7-1,12.8   c-2.9,8.6-9.5,15-19.5,19.1l-0.2,0.1c-2.4,1.7-5,2.9-7.9,3.6l-0.2,0.1c-1.5,0.7-3,1.3-4.6,1.8c-3.8,1.3-8,1.3-11.8-0.1l-0.2-0.1   l-6.6,0.7c-1.8,0-3.4-1.1-4-2.9l-0.1-0.2l-0.2-0.2c-2.6-2.4-3.4-6.1-2.2-9.3l0.1-0.4l-0.2-0.4c-0.3-0.7-0.5-1.3-0.7-1.9   c-1.5-4.7-0.7-11.4,2.1-16.2c1.6-2.8,4-5.1,6.7-6.8l0.2-0.1l0.1-0.2c2-3,4.4-5.7,7.2-7.9l0.1-0.1c5.4-5.7,10.6-6.8,12-7.1l1.3,0.3   l0.2-0.1c8-2.2,15.7-1.3,21.1,2.4c1.2,0.8,2.3,1.8,3.3,2.9l0.2,0.2l0.9,0.2h0.2c2.7,0,4.8,2.2,4.8,4.8c0,0.6-0.1,1.3-0.4,1.9   l-1.1,2.6L223.5,103.1z M97,142l-20-3h-0.2c-9.2,0-22.4-2-29.7-19.3l-3-19.5l-0.1-0.2c-0.3-0.7,0.1-2,1-3.3   c2.3-3.3,7.3-6.9,9.8-6.9l0,0l19.6-1.2c3.6,0.5,14.3,2.1,24.2,32.7c1.1,3.3,1,17.2-1.3,20.5C97.3,141.8,97.2,141.9,97,142z"/>
</g>
<g>
	<path class="st2" d="M133.6,248.3c-63.5,0-115.1-51.6-115.1-115.1v-23.9C18.5,54.1,63.4,9.2,118.6,9.2h30.1   c55.2,0,100.1,44.9,100.1,100.1v23.9C248.7,196.7,197.1,248.3,133.6,248.3z M118.6,17.2c-50.8,0-92.1,41.3-92.1,92.1v23.9   c0,59.1,48.1,107.1,107.1,107.1c59.1,0,107.1-48.1,107.1-107.1v-23.9c0-50.8-41.3-92.1-92.1-92.1H118.6z"/>
</g>
<g>
	<defs>
		<path id="SVGID_3_" d="M133.1,211.9c13.9,0.1,26-9.3,29.5-22.7c0.7-3.2-1.3-6.3-4.4-7c-0.5-0.1-1-0.2-1.5-0.1l-47.5,0.2    c-3.2-0.1-5.9,2.5-6,5.8c0,0.5,0,1,0.2,1.5C107,202.8,119.2,212.1,133.1,211.9"/>
	</defs>
	<clipPath id="SVGID_4_">
		<use xlink:href="#SVGID_3_" style="overflow:visible;"/>
	</clipPath>
	<g class="st7">
		<g>
			<defs>
				<rect id="SVGID_5_" x="-505.8" y="-241.8" width="1816.1" height="1021.5"/>
			</defs>
			<clipPath id="SVGID_6_">
				<use xlink:href="#SVGID_5_" style="overflow:visible;"/>
			</clipPath>
			<g class="st8">
				<g>
					<rect x="96.1" y="174.9" class="st2" width="73.8" height="44.1"/>
				</g>
			</g>
		</g>
	</g>
</g>
<g>
	<defs>
		<path id="SVGID_7_" d="M162.1,191c0.6-1.9,1-3.8,1.2-5.8c0.2-2.2-1.5-4.2-3.7-4.4c-0.1,0-0.3,0-0.4,0l-52.4,0.2    c-2.2,0-4.1,1.8-4.1,4c0,0.1,0,0.3,0,0.4c0.2,2,0.6,3.9,1.2,5.8L162.1,191z"/>
	</defs>
	<clipPath id="SVGID_8_">
		<use xlink:href="#SVGID_7_" style="overflow:visible;"/>
	</clipPath>
	<g class="st9">
		<g>
			<defs>
				<rect id="SVGID_9_" x="-505.8" y="-241.8" width="1816.1" height="1021.5"/>
			</defs>
			<clipPath id="SVGID_10_">
				<use xlink:href="#SVGID_9_" style="overflow:visible;"/>
			</clipPath>
			<g class="st10">
				<g>
					<rect x="95.6" y="173.7" class="st5" width="74.8" height="24.6"/>
				</g>
			</g>
		</g>
	</g>
</g>
<g>
	<defs>
		<path id="SVGID_11_" d="M134.3,212c-14,0.1-19.9-6.8-19.9-6.8c4.7-3.3,11.8-5.4,19.9-5.4c7,0,14.7,1.5,19.3,4.1    C153.6,203.9,148.4,212,134.3,212"/>
	</defs>
	<clipPath id="SVGID_12_">
		<use xlink:href="#SVGID_11_" style="overflow:visible;"/>
	</clipPath>
	<g class="st11">
		<g>
			<defs>
				<rect id="SVGID_13_" x="-505.8" y="-241.8" width="1816.1" height="1021.5"/>
			</defs>
			<clipPath id="SVGID_14_">
				<use xlink:href="#SVGID_13_" style="overflow:visible;"/>
			</clipPath>
			<g class="st12">
				<g>
					<rect x="107.3" y="192.6" class="st13" width="53.3" height="26.4"/>
				</g>
			</g>
		</g>
	</g>
</g>
<g>
	<defs>
		<path id="SVGID_15_" d="M159.2,180.8c2.2,0,4.1,1.7,4.1,4c0,0.1,0,0.3,0,0.4c-0.1,1.4-2.2,10.1-10.3,19.4c-1.7,2-7.2,7.4-18.7,7.4    l0,0c-2.3,0-10.6-0.6-15.3-3.4c-6.8-4.2-12.5-9.8-15-17.4c-0.7-1.9-1.1-3.8-1.2-5.8c-0.1-2.3,1.7-4.3,4-4.4c0,0,0,0,0.1,0    L159.2,180.8L159.2,180.8 M159.3,173.5L159.3,173.5l-52.4,0.2c-6.4,0-11.6,5.2-11.6,11.6c0,0,0,0,0,0.1c0.1,2.8,0.7,5.5,1.6,8.2    c2.8,8.4,8.8,15.5,18.1,21.2c7.3,4.5,18.8,4.6,19.3,4.6h0.1c14.4,0,21.8-6.9,24.4-10c9-10.3,11.8-20.4,12-23.4    c0.3-3.2-0.8-6.3-2.9-8.6C165.5,174.8,162.4,173.5,159.3,173.5"/>
	</defs>
	<clipPath id="SVGID_16_">
		<use xlink:href="#SVGID_15_" style="overflow:visible;"/>
	</clipPath>
	<g class="st14">
		<g>
			<defs>
				<rect id="SVGID_17_" x="-505.8" y="-241.8" width="1816.1" height="1021.5"/>
			</defs>
			<clipPath id="SVGID_18_">
				<use xlink:href="#SVGID_17_" style="overflow:visible;"/>
			</clipPath>
			<g class="st15">
				<g>
					<rect x="88.1" y="166.4" class="st2" width="89.7" height="59.9"/>
				</g>
			</g>
		</g>
	</g>
</g>
<g>
	<path class="st2" d="M199.4,68.5c16.7,0,32.5,7.5,37.8,15.5c6,9.1,2.5,7.9,5.1,18.1c0,0,0.9,53-52.8,57.3h-18.9l7.8,10.4   c2.6,3.5,4.2,7.6,4.5,12c0.1,0.6,0.1,1.3,0,1.9c-0.4,4-3.9,17.2-15.2,30.5c-3.3,4-12.9,13.3-31.5,13.4c-0.7,0-15.4-0.1-24.9-6.1   c-11.7-7.4-19.5-16.8-23-27.8c-1.2-3.5-2-7.2-2.1-11c0-4.6,1.8-9,5.1-12.3l-0.1-0.1l7.6-11h-22c-18,0-36.8-14.4-46.9-38.5   l-4.9-18.8c1.7-6.8,1.5-13.4,6.1-17c11.2-9,25.2-14,39.6-14.1c2,0,3.1,0.1,3.1,0.1c26.6,3.6,34.7,12.3,44.4,58.3l2.9-2.2   c2.9-4,7.5-6.4,12.5-6.5h0.1c4.9,0,9.4,2.3,12.4,6.1l3.8,5.1C150.9,83.2,176.1,68.5,199.4,68.5 M184.6,145.4c5.6,0,10-0.4,10-0.4   c33.2-7.2,35.4-39.9,35.4-39.9c1-7.6,0.6-11.1-7.9-17.4c-6-4.2-13.2-6.5-20.6-6.5c-3.5,0-6.9,0.5-10.3,1.5   c-17.8,5.3-27.3,17.2-30.4,52.6C160,143.9,174.4,145.4,184.6,145.4 M82.8,145.4c9.9,0,23.7-1.5,23-9.7c-3-34.1-12.2-45.5-29.3-50.6   c-3.2-1-6.5-1.5-9.9-1.5c-7.1,0-14.1,2.2-19.9,6.3c-8.2,6-8.6,9.4-7.6,16.7c0,0,2.1,31.5,34.1,38.4C73.2,145,77.4,145.4,82.8,145.4    M121.6,164.7L121.6,164.7l25.4-0.1c3.2,0,5.7-2.6,5.7-5.7c0-1.2-0.4-2.4-1.1-3.4l-13-18c-1.9-2.6-5.4-3.1-8-1.3   c-0.5,0.4-1,0.8-1.3,1.4l-12.5,18.1c-1.8,2.6-1.2,6.2,1.4,8C119.2,164.3,120.4,164.7,121.6,164.7 M199.4,62.5   c-10.4,0-25.4,2.6-37.5,15.3c-9.1,9.5-14.8,22.9-17,40c-3.4-2.1-7.3-3.1-11.2-3.2h-0.2c-4.2,0.1-8.2,1.3-11.7,3.6   c-9.2-39-19.2-49.3-47.3-53.1h-0.2c-0.1,0-1.5-0.2-3.7-0.2c-15.8,0.1-31.1,5.5-43.4,15.4C22.1,84.4,21,90.4,20,95.8   c-0.3,1.6-0.6,3.3-1,4.9l-0.4,1.5l0.4,1.5l4.9,18.8l0.1,0.4l0.2,0.4c10.7,25.6,31.3,42.2,52.4,42.2h10.6l-1.1,1.6l-0.1,0.2   c-3.8,4.3-6,9.8-6,15.5c0.1,4.4,0.9,8.8,2.4,12.9c4,12.3,12.6,22.8,25.5,30.9c10.8,6.8,26.4,7,28.1,7c21.1-0.1,32.2-10.8,36.1-15.5   c11.9-13.9,16-28.2,16.6-33.8c0.1-0.9,0.1-1.9,0-2.8c-0.4-5.5-2.4-10.8-5.7-15.2l-0.6-0.9h7.2h0.2c30.6-2.4,44.9-19.7,51.5-33.7   c4.4-9.3,6.7-19.5,6.9-29.8v-0.7l-0.2-0.7c-0.6-2.2-0.9-4.4-1-6.7c-0.2-4.2-0.8-6.9-4.9-13.2C235.4,70.3,217,62.5,199.4,62.5   L199.4,62.5z M166.7,136c0,0,0-0.1,0-0.2c3-34.1,11.5-43,26.2-47.3c2.8-0.8,5.7-1.3,8.6-1.3c6,0,11.9,1.9,16.9,5.2l0.1,0.1l0,0   c6.4,4.7,6.3,6,5.5,11.8v0.2v0.2c-0.1,1.1-2.4,28.1-30.4,34.3c-1,0.1-4.7,0.4-9,0.4C171.3,139.4,167.1,136.7,166.7,136L166.7,136z    M74.1,139c-26.8-6-29-31.8-29.1-32.9V106v-0.2c-0.7-5.5-0.8-6.7,5.2-11.2l0.1-0.1h0.1c4.8-3.2,10.4-5,16.1-5   c2.8,0,5.5,0.4,8.2,1.2c18.1,5.4,22.8,20.1,25,45.3v0.1c-0.6,0.9-4.9,3.1-17,3.1C78.6,139.4,75.1,139.1,74.1,139L74.1,139z    M122.1,158.6l11.9-17.3l12.4,17.2C146.5,158.5,122.1,158.6,122.1,158.6z"/>
</g>
</svg>